<svg xmlns="http://www.w3.org/2000/svg" xmlns:xlink="http://www.w3.org/1999/xlink" width="82" zoomAndPan="magnify" viewBox="0 0 61.5 54" height="72" preserveAspectRatio="xMidYMid meet" version="1.0"><path fill="#ff6c37" d="M 50.785156 10.8125 C 50.273438 10.15625 49.734375 9.523438 49.160156 8.917969 C 48.589844 8.3125 47.988281 7.738281 47.359375 7.191406 C 46.730469 6.644531 46.074219 6.132812 45.394531 5.648438 C 44.714844 5.167969 44.015625 4.71875 43.289062 4.304688 C 42.566406 3.890625 41.824219 3.515625 41.0625 3.175781 C 40.300781 2.832031 39.523438 2.53125 38.734375 2.265625 C 37.941406 2 37.140625 1.773438 36.328125 1.589844 C 35.515625 1.402344 34.695312 1.257812 33.867188 1.152344 C 33.039062 1.042969 32.207031 0.980469 31.375 0.953125 C 30.539062 0.929688 29.707031 0.945312 28.875 1.003906 C 28.039062 1.058594 27.210938 1.15625 26.390625 1.296875 C 25.566406 1.433594 24.753906 1.613281 23.949219 1.828125 C 23.140625 2.046875 22.347656 2.304688 21.570312 2.597656 C 20.789062 2.894531 20.023438 3.226562 19.277344 3.597656 C 18.53125 3.96875 17.804688 4.375 17.097656 4.816406 C 16.390625 5.257812 15.707031 5.730469 15.042969 6.238281 C 14.382812 6.746094 13.75 7.285156 13.144531 7.855469 C 12.535156 8.425781 11.957031 9.027344 11.410156 9.652344 C 10.863281 10.28125 10.34375 10.933594 9.863281 11.609375 C 9.378906 12.285156 8.929688 12.984375 8.511719 13.707031 C 8.097656 14.429688 7.71875 15.167969 7.378906 15.925781 C 7.035156 16.6875 6.730469 17.457031 6.464844 18.246094 C 6.199219 19.035156 5.972656 19.835938 5.789062 20.644531 C 5.601562 21.457031 5.453125 22.273438 5.347656 23.097656 C 5.242188 23.921875 5.175781 24.75 5.152344 25.582031 C 5.128906 26.414062 5.144531 27.242188 5.199219 28.070312 C 5.257812 28.902344 5.355469 29.726562 5.496094 30.546875 C 5.632812 31.367188 5.8125 32.175781 6.03125 32.980469 C 6.25 33.78125 6.507812 34.570312 6.804688 35.347656 C 7.097656 36.125 7.433594 36.886719 7.804688 37.632812 C 8.175781 38.375 8.582031 39.101562 9.027344 39.804688 C 9.46875 40.511719 9.945312 41.191406 10.457031 41.847656 C 10.96875 42.507812 11.507812 43.140625 12.082031 43.742188 C 12.652344 44.347656 13.253906 44.925781 13.882812 45.472656 C 14.511719 46.015625 15.167969 46.53125 15.847656 47.011719 C 16.527344 47.496094 17.230469 47.941406 17.953125 48.355469 C 18.675781 48.769531 19.417969 49.148438 20.179688 49.488281 C 20.941406 49.828125 21.71875 50.128906 22.507812 50.394531 C 23.300781 50.660156 24.101562 50.886719 24.917969 51.070312 C 25.730469 51.257812 26.550781 51.402344 27.378906 51.507812 C 28.207031 51.613281 29.035156 51.679688 29.871094 51.703125 C 30.703125 51.730469 31.539062 51.710938 32.371094 51.65625 C 33.203125 51.597656 34.03125 51.5 34.855469 51.363281 C 35.675781 51.222656 36.492188 51.046875 37.296875 50.828125 C 38.101562 50.609375 38.894531 50.355469 39.675781 50.058594 C 40.453125 49.761719 41.21875 49.429688 41.964844 49.058594 C 42.710938 48.6875 43.441406 48.285156 44.148438 47.84375 C 44.855469 47.402344 45.539062 46.925781 46.199219 46.417969 C 57.328125 37.847656 59.382812 21.90625 50.785156 10.8125 Z M 50.785156 10.8125 " fill-opacity="1" fill-rule="nonzero"/><path fill="#ffffff" d="M 39.214844 17.117188 L 28.46875 27.90625 L 25.433594 24.796875 C 36.007812 14.261719 37.070312 15.214844 39.214844 17.117188 Z M 39.214844 17.117188 " fill-opacity="1" fill-rule="nonzero"/><path fill="#ff6c37" d="M 28.46875 28.203125 C 28.371094 28.199219 28.285156 28.164062 28.214844 28.097656 L 25.15625 25.050781 C 25.085938 24.976562 25.050781 24.890625 25.050781 24.785156 C 25.050781 24.683594 25.085938 24.597656 25.15625 24.523438 C 35.582031 14.136719 37.003906 14.621094 39.46875 16.84375 C 39.554688 16.914062 39.597656 17.003906 39.59375 17.117188 C 39.609375 17.222656 39.570312 17.328125 39.488281 17.394531 L 28.746094 28.097656 C 28.667969 28.167969 28.574219 28.203125 28.46875 28.203125 Z M 25.964844 24.796875 L 28.46875 27.292969 L 38.660156 17.140625 C 38.484375 16.917969 38.277344 16.738281 38.03125 16.597656 C 37.789062 16.453125 37.527344 16.359375 37.25 16.3125 C 36.972656 16.265625 36.695312 16.269531 36.417969 16.324219 C 36.140625 16.378906 35.882812 16.480469 35.644531 16.632812 C 33.800781 17.457031 30.828125 19.972656 25.964844 24.796875 Z M 25.964844 24.796875 " fill-opacity="1" fill-rule="nonzero"/><path fill="#ffffff" d="M 31.546875 30.890625 L 28.617188 27.90625 L 39.363281 17.328125 C 42.25 20.144531 37.960938 24.839844 31.546875 30.890625 Z M 31.546875 30.890625 " fill-opacity="1" fill-rule="nonzero"/><path fill="#ff6c37" d="M 31.546875 31.269531 C 31.453125 31.265625 31.367188 31.230469 31.292969 31.164062 L 28.300781 28.246094 C 28.253906 28.132812 28.253906 28.019531 28.300781 27.90625 C 28.265625 27.816406 28.265625 27.722656 28.300781 27.632812 L 39.042969 16.929688 C 39.121094 16.855469 39.214844 16.820312 39.320312 16.820312 C 39.425781 16.820312 39.519531 16.855469 39.59375 16.929688 C 39.949219 17.25 40.214844 17.632812 40.402344 18.070312 C 40.585938 18.511719 40.671875 18.96875 40.65625 19.445312 C 40.65625 22.300781 37.386719 25.898438 31.824219 31.144531 C 31.746094 31.21875 31.65625 31.261719 31.546875 31.269531 Z M 29.171875 27.90625 L 31.570312 30.296875 C 35.816406 26.300781 39.871094 22.171875 39.890625 19.382812 C 39.917969 18.769531 39.730469 18.226562 39.339844 17.753906 Z M 29.171875 27.90625 " fill-opacity="1" fill-rule="nonzero"/><path fill="#ffffff" d="M 25.519531 24.863281 L 27.640625 26.976562 C 27.714844 27.039062 27.714844 27.105469 27.640625 27.167969 L 23.160156 28.121094 C 22.953125 28.164062 22.796875 28.09375 22.695312 27.902344 C 22.597656 27.714844 22.625 27.546875 22.777344 27.398438 L 25.390625 24.820312 C 25.390625 24.820312 25.476562 24.820312 25.519531 24.863281 Z M 25.519531 24.863281 " fill-opacity="1" fill-rule="nonzero"/><path fill="#ff6c37" d="M 23.054688 28.542969 C 22.746094 28.539062 22.511719 28.40625 22.355469 28.140625 C 22.269531 27.984375 22.242188 27.816406 22.269531 27.640625 C 22.296875 27.464844 22.375 27.3125 22.503906 27.1875 L 25.09375 24.585938 C 25.191406 24.5 25.304688 24.457031 25.433594 24.457031 C 25.5625 24.457031 25.675781 24.5 25.773438 24.585938 L 27.898438 26.703125 C 28.023438 26.820312 28.070312 27 28.023438 27.167969 C 27.976562 27.335938 27.835938 27.464844 27.664062 27.507812 L 23.183594 28.457031 Z M 25.433594 25.328125 L 23.035156 27.71875 L 27.003906 26.871094 Z M 25.625 25.136719 Z M 25.625 25.136719 " fill-opacity="1" fill-rule="nonzero"/><path fill="#ffffff" d="M 44.925781 11.171875 C 43.386719 9.695312 40.972656 9.636719 39.363281 11.027344 C 37.75 12.421875 37.476562 14.816406 38.730469 16.535156 C 39.984375 18.257812 42.351562 18.742188 44.183594 17.648438 L 41.292969 14.769531 Z M 44.925781 11.171875 " fill-opacity="1" fill-rule="nonzero"/><path fill="#ff6c37" d="M 42.058594 18.621094 C 41.617188 18.613281 41.1875 18.546875 40.765625 18.414062 C 40.34375 18.28125 39.949219 18.089844 39.585938 17.84375 C 39.222656 17.597656 38.898438 17.300781 38.621094 16.960938 C 38.34375 16.617188 38.121094 16.242188 37.953125 15.835938 C 37.785156 15.429688 37.679688 15.007812 37.636719 14.570312 C 37.59375 14.132812 37.617188 13.699219 37.703125 13.265625 C 37.785156 12.835938 37.929688 12.425781 38.136719 12.039062 C 38.34375 11.648438 38.601562 11.296875 38.910156 10.984375 C 39.121094 10.777344 39.347656 10.59375 39.59375 10.433594 C 39.839844 10.269531 40.101562 10.132812 40.375 10.023438 C 40.648438 9.910156 40.929688 9.828125 41.21875 9.769531 C 41.507812 9.714844 41.800781 9.6875 42.09375 9.6875 C 42.390625 9.6875 42.679688 9.714844 42.96875 9.769531 C 43.261719 9.828125 43.542969 9.910156 43.8125 10.023438 C 44.085938 10.132812 44.347656 10.269531 44.59375 10.433594 C 44.839844 10.59375 45.066406 10.777344 45.277344 10.984375 C 45.359375 11.050781 45.40625 11.152344 45.40625 11.257812 C 45.40625 11.371094 45.363281 11.460938 45.277344 11.535156 L 41.839844 14.769531 L 44.449219 17.332031 C 44.542969 17.417969 44.578125 17.523438 44.554688 17.648438 C 44.542969 17.765625 44.488281 17.859375 44.386719 17.921875 C 43.671875 18.367188 42.894531 18.601562 42.050781 18.621094 Z M 42.058594 10.410156 C 40.546875 10.417969 39.191406 11.324219 38.625 12.710938 C 38.058594 14.097656 38.367188 15.691406 39.425781 16.757812 C 39.691406 17.023438 39.988281 17.242188 40.316406 17.417969 C 40.648438 17.589844 40.996094 17.714844 41.363281 17.785156 C 41.730469 17.855469 42.101562 17.867188 42.472656 17.828125 C 42.84375 17.785156 43.203125 17.691406 43.546875 17.539062 L 41.039062 15.042969 C 40.953125 14.976562 40.910156 14.886719 40.910156 14.78125 C 40.910156 14.671875 40.953125 14.582031 41.039062 14.515625 L 44.351562 11.195312 C 43.675781 10.675781 42.910156 10.417969 42.058594 10.410156 Z M 42.058594 10.410156 " fill-opacity="1" fill-rule="nonzero"/><path fill="#ffffff" d="M 44.988281 11.238281 L 41.359375 14.832031 L 44.246094 17.710938 C 44.539062 17.542969 44.804688 17.347656 45.050781 17.117188 C 45.429688 16.71875 45.722656 16.265625 45.921875 15.753906 C 46.121094 15.242188 46.21875 14.714844 46.214844 14.164062 C 46.207031 13.617188 46.097656 13.089844 45.886719 12.582031 C 45.675781 12.074219 45.375 11.628906 44.988281 11.238281 Z M 44.988281 11.238281 " fill-opacity="1" fill-rule="nonzero"/><path fill="#ff6c37" d="M 44.179688 18.027344 C 44.078125 18.035156 43.996094 18 43.925781 17.921875 L 41.039062 15.046875 C 40.953125 14.976562 40.910156 14.890625 40.910156 14.78125 C 40.910156 14.671875 40.953125 14.582031 41.039062 14.515625 L 44.648438 10.984375 C 44.683594 10.929688 44.730469 10.886719 44.785156 10.859375 C 44.84375 10.828125 44.902344 10.8125 44.964844 10.8125 C 45.03125 10.8125 45.089844 10.828125 45.148438 10.859375 C 45.203125 10.886719 45.25 10.929688 45.285156 10.984375 C 45.496094 11.191406 45.6875 11.414062 45.851562 11.660156 C 46.019531 11.90625 46.160156 12.164062 46.273438 12.4375 C 46.390625 12.707031 46.476562 12.988281 46.535156 13.277344 C 46.59375 13.570312 46.625 13.859375 46.625 14.15625 C 46.625 14.453125 46.59375 14.746094 46.535156 15.035156 C 46.476562 15.324219 46.390625 15.605469 46.273438 15.878906 C 46.160156 16.148438 46.019531 16.410156 45.851562 16.652344 C 45.6875 16.898438 45.496094 17.121094 45.285156 17.328125 C 45.035156 17.59375 44.75 17.820312 44.4375 18.007812 C 44.351562 18.046875 44.269531 18.054688 44.179688 18.027344 Z M 41.847656 14.769531 L 44.246094 17.160156 C 44.410156 17.046875 44.566406 16.917969 44.710938 16.78125 C 45.445312 16.050781 45.816406 15.167969 45.816406 14.136719 C 45.820312 13.21875 45.515625 12.414062 44.902344 11.722656 Z M 41.847656 14.769531 " fill-opacity="1" fill-rule="nonzero"/><path fill="#ffffff" d="M 39.660156 17.5625 C 39.515625 17.429688 39.351562 17.324219 39.167969 17.253906 C 38.984375 17.179688 38.792969 17.144531 38.597656 17.144531 C 38.398438 17.144531 38.210938 17.179688 38.027344 17.253906 C 37.84375 17.324219 37.679688 17.429688 37.535156 17.5625 L 27.917969 27.125 L 29.511719 28.730469 L 39.679688 19.847656 C 39.835938 19.699219 39.957031 19.523438 40.042969 19.324219 C 40.125 19.125 40.167969 18.917969 40.164062 18.699219 C 40.164062 18.484375 40.117188 18.277344 40.03125 18.078125 C 39.941406 17.882812 39.820312 17.710938 39.660156 17.5625 Z M 39.660156 17.5625 " fill-opacity="1" fill-rule="nonzero"/><path fill="#ff6c37" d="M 29.425781 29.113281 C 29.328125 29.109375 29.242188 29.074219 29.171875 29.007812 L 27.554688 27.398438 C 27.484375 27.328125 27.449219 27.238281 27.449219 27.136719 C 27.449219 27.03125 27.484375 26.945312 27.554688 26.871094 L 37.175781 17.328125 C 37.457031 17.046875 37.796875 16.871094 38.191406 16.792969 C 38.582031 16.71875 38.964844 16.761719 39.332031 16.921875 C 39.699219 17.078125 39.992188 17.328125 40.207031 17.664062 C 40.421875 18 40.519531 18.371094 40.507812 18.769531 C 40.484375 19.324219 40.265625 19.789062 39.851562 20.164062 L 29.679688 29.050781 C 29.601562 29.101562 29.519531 29.125 29.425781 29.113281 Z M 28.300781 27.125 L 29.363281 28.203125 L 39.339844 19.550781 C 39.585938 19.335938 39.734375 19.03125 39.746094 18.703125 C 39.753906 18.378906 39.625 18.058594 39.382812 17.835938 C 39.273438 17.726562 39.144531 17.640625 39 17.582031 C 38.851562 17.523438 38.703125 17.492188 38.542969 17.492188 C 38.386719 17.492188 38.234375 17.523438 38.089844 17.582031 C 37.945312 17.640625 37.816406 17.726562 37.707031 17.835938 Z M 28.300781 27.125 " fill-opacity="1" fill-rule="nonzero"/><path fill="#ffffff" d="M 20.464844 38.019531 C 20.402344 38.105469 20.402344 38.1875 20.464844 38.273438 L 20.890625 40.113281 C 20.929688 40.359375 20.839844 40.542969 20.625 40.667969 C 20.410156 40.796875 20.207031 40.773438 20.019531 40.609375 L 17.109375 37.816406 L 26.175781 28.710938 L 29.320312 28.710938 L 31.441406 30.828125 C 28.113281 33.726562 24.457031 36.125 20.464844 38.019531 Z M 20.464844 38.019531 " fill-opacity="1" fill-rule="nonzero"/><path fill="#ff6c37" d="M 20.273438 41.128906 C 20.035156 41.125 19.796875 41.027344 19.636719 40.855469 L 16.855469 38.082031 C 16.769531 38.015625 16.726562 37.925781 16.726562 37.816406 C 16.726562 37.710938 16.769531 37.621094 16.855469 37.554688 L 25.984375 28.4375 C 26.039062 28.378906 26.101562 28.34375 26.175781 28.332031 L 29.339844 28.332031 C 29.425781 28.300781 29.511719 28.300781 29.59375 28.332031 L 31.71875 30.445312 C 31.804688 30.527344 31.839844 30.625 31.824219 30.742188 C 31.828125 30.855469 31.785156 30.945312 31.695312 31.019531 L 31.527344 31.164062 C 28.1875 33.9375 24.558594 36.257812 20.636719 38.125 L 21.039062 39.839844 C 21.070312 39.972656 21.070312 40.105469 21.042969 40.242188 C 21.011719 40.375 20.957031 40.496094 20.871094 40.605469 C 20.789062 40.714844 20.683594 40.800781 20.558594 40.863281 C 20.4375 40.925781 20.304688 40.957031 20.167969 40.960938 Z M 17.683594 37.808594 L 20.1875 40.324219 C 20.246094 40.375 20.300781 40.375 20.359375 40.324219 C 20.394531 40.273438 20.394531 40.226562 20.359375 40.175781 L 19.933594 38.335938 C 19.898438 38.199219 19.914062 38.066406 19.972656 37.941406 C 20.03125 37.8125 20.125 37.71875 20.253906 37.660156 C 24.070312 35.816406 27.609375 33.546875 30.867188 30.847656 L 29.128906 29.113281 L 26.28125 29.113281 Z M 20.742188 38.1875 Z M 20.742188 38.1875 " fill-opacity="1" fill-rule="nonzero"/><path fill="#ffffff" d="M 14.921875 39.988281 L 17.046875 37.871094 L 20.316406 41.128906 L 15.117188 40.769531 C 14.910156 40.753906 14.785156 40.644531 14.734375 40.449219 C 14.6875 40.25 14.75 40.09375 14.925781 39.988281 Z M 14.921875 39.988281 " fill-opacity="1" fill-rule="nonzero"/><path fill="#ff6c37" d="M 20.378906 41.445312 L 15.199219 41.085938 C 14.890625 41.058594 14.628906 40.847656 14.519531 40.570312 C 14.410156 40.289062 14.476562 39.957031 14.691406 39.734375 L 16.8125 37.617188 C 16.886719 37.546875 16.976562 37.511719 17.078125 37.511719 C 17.183594 37.511719 17.269531 37.546875 17.34375 37.617188 L 20.59375 40.855469 C 20.695312 40.996094 20.695312 41.136719 20.59375 41.277344 C 20.542969 41.359375 20.472656 41.414062 20.378906 41.445312 Z M 15.199219 40.261719 L 19.445312 40.539062 L 17.109375 38.359375 Z M 15.199219 40.261719 " fill-opacity="1" fill-rule="nonzero"/><path fill="#ffffff" d="M 29.617188 28.964844 L 25.328125 29.621094 L 27.8125 27.167969 Z M 29.617188 28.964844 " fill-opacity="1" fill-rule="nonzero"/><path fill="#ff6c37" d="M 25.328125 30.023438 C 25.167969 30.027344 25.054688 29.957031 24.988281 29.8125 C 24.882812 29.671875 24.882812 29.527344 24.988281 29.386719 L 27.449219 26.914062 C 27.527344 26.839844 27.621094 26.804688 27.726562 26.804688 C 27.832031 26.804688 27.925781 26.839844 28 26.914062 L 29.808594 28.710938 C 29.886719 28.835938 29.886719 28.964844 29.808594 29.089844 C 29.769531 29.246094 29.667969 29.339844 29.511719 29.367188 L 25.265625 30.023438 Z M 27.8125 27.714844 L 26.429688 29.089844 L 28.808594 28.730469 Z M 27.8125 27.714844 " fill-opacity="1" fill-rule="nonzero"/><path fill="#ffffff" d="M 29.617188 28.964844 L 26.621094 29.34375 C 26.4375 29.386719 26.296875 29.324219 26.207031 29.160156 C 26.113281 28.996094 26.132812 28.847656 26.261719 28.710938 L 27.8125 27.167969 Z M 29.617188 28.964844 " fill-opacity="1" fill-rule="nonzero"/><path fill="#ff6c37" d="M 26.539062 29.75 C 26.234375 29.746094 26.007812 29.609375 25.859375 29.347656 C 25.773438 29.199219 25.746094 29.039062 25.769531 28.871094 C 25.792969 28.699219 25.863281 28.554688 25.984375 28.4375 L 27.535156 26.890625 C 27.613281 26.820312 27.707031 26.78125 27.8125 26.78125 C 27.917969 26.78125 28.011719 26.820312 28.085938 26.890625 L 29.894531 28.691406 C 30.011719 28.804688 30.046875 28.9375 29.988281 29.09375 C 29.933594 29.25 29.824219 29.332031 29.660156 29.347656 L 26.6875 29.726562 Z M 26.539062 28.964844 L 28.789062 28.691406 L 27.789062 27.695312 L 26.515625 28.964844 Z M 45.007812 13.671875 C 44.914062 13.507812 44.777344 13.464844 44.605469 13.542969 C 44.53125 13.582031 44.484375 13.640625 44.457031 13.71875 C 44.433594 13.796875 44.441406 13.871094 44.480469 13.945312 C 44.628906 14.257812 44.585938 14.625 44.371094 14.898438 C 44.316406 14.953125 44.289062 15.019531 44.292969 15.097656 C 44.292969 15.175781 44.320312 15.242188 44.371094 15.300781 C 44.429688 15.320312 44.484375 15.320312 44.542969 15.300781 C 44.652344 15.328125 44.742188 15.296875 44.820312 15.214844 C 44.996094 14.996094 45.101562 14.75 45.136719 14.46875 C 45.171875 14.191406 45.128906 13.925781 45.007812 13.667969 Z M 45.007812 13.671875 " fill-opacity="1" fill-rule="nonzero"/></svg>